<svg xmlns="http://www.w3.org/2000/svg" viewBox="13 14 94 127"><path d="M57.3 34 L58.3 20 Q59.3 13.5 66.2 15 L64.6 20.4 Q61.6 20.8 62.1 26 L62.6 34 Z" fill="#EDE6D6"/><path d="M54.5 36 Q60 30.5 65.5 36 C79 52 104 70 104 98 C104 124 84 138 60 138 C36 138 16 124 16 98 C16 70 41 52 54.5 36 Z" fill="none" stroke="#EDE6D6" stroke-width="6" stroke-linejoin="round"/><circle cx="60" cy="47.2" r="3" fill="#E5483C"/><circle cx="55.9" cy="54.3" r="3" fill="#E5483C"/><circle cx="64.1" cy="54.3" r="3" fill="#E5483C"/><circle cx="51.8" cy="61.4" r="3" fill="#E5483C"/><circle cx="60" cy="61.4" r="3" fill="#E5483C"/><circle cx="68.2" cy="61.4" r="3" fill="#E5483C"/><circle cx="39.5" cy="68.5" r="3" fill="#E5483C"/><circle cx="47.7" cy="68.5" r="3" fill="#E5483C"/><circle cx="55.9" cy="68.5" r="3" fill="#E5483C"/><circle cx="64.1" cy="68.5" r="3" fill="#E5483C"/><circle cx="72.3" cy="68.5" r="3" fill="#E5483C"/><circle cx="80.5" cy="68.5" r="3" fill="#E5483C"/><circle cx="35.4" cy="75.6" r="3" fill="#E5483C"/><circle cx="43.6" cy="75.6" r="3" fill="#E5483C"/><circle cx="51.8" cy="75.6" r="3" fill="#E5483C"/><circle cx="60" cy="75.6" r="3" fill="#E5483C"/><circle cx="68.2" cy="75.6" r="3" fill="#E5483C"/><circle cx="76.4" cy="75.6" r="3" fill="#E5483C"/><circle cx="84.6" cy="75.6" r="3" fill="#E5483C"/><circle cx="31.3" cy="82.7" r="3" fill="#E5483C"/><circle cx="39.5" cy="82.7" r="3" fill="#E5483C"/><circle cx="47.7" cy="82.7" r="3" fill="#E5483C"/><circle cx="55.9" cy="82.7" r="3" fill="#E5483C"/><circle cx="64.1" cy="82.7" r="3" fill="#E5483C"/><circle cx="72.3" cy="82.7" r="3" fill="#E5483C"/><circle cx="80.5" cy="82.7" r="3" fill="#E5483C"/><circle cx="88.7" cy="82.7" r="3" fill="#E5483C"/><circle cx="27.2" cy="89.8" r="3" fill="#E5483C"/><circle cx="35.4" cy="89.8" r="3" fill="#E5483C"/><circle cx="43.6" cy="89.8" r="3" fill="#E5483C"/><circle cx="51.8" cy="89.8" r="3" fill="#E5483C"/><circle cx="68.2" cy="89.8" r="3" fill="#E5483C"/><circle cx="76.4" cy="89.8" r="3" fill="#E5483C"/><circle cx="84.6" cy="89.8" r="3" fill="#E5483C"/><circle cx="92.8" cy="89.8" r="3" fill="#E5483C"/><circle cx="31.3" cy="96.9" r="3" fill="#E5483C"/><circle cx="39.5" cy="96.9" r="3" fill="#E5483C"/><circle cx="47.7" cy="96.9" r="3" fill="#E5483C"/><circle cx="72.3" cy="96.9" r="3" fill="#E5483C"/><circle cx="80.5" cy="96.9" r="3" fill="#E5483C"/><circle cx="88.7" cy="96.9" r="3" fill="#E5483C"/><circle cx="27.2" cy="104" r="3" fill="#E5483C"/><circle cx="35.4" cy="104" r="3" fill="#E5483C"/><circle cx="43.6" cy="104" r="3" fill="#E5483C"/><circle cx="76.4" cy="104" r="3" fill="#E5483C"/><circle cx="84.6" cy="104" r="3" fill="#E5483C"/><circle cx="92.8" cy="104" r="3" fill="#E5483C"/><circle cx="31.3" cy="111.1" r="3" fill="#E5483C"/><circle cx="39.5" cy="111.1" r="3" fill="#E5483C"/><circle cx="47.7" cy="111.1" r="3" fill="#E5483C"/><circle cx="72.3" cy="111.1" r="3" fill="#E5483C"/><circle cx="80.5" cy="111.1" r="3" fill="#E5483C"/><circle cx="88.7" cy="111.1" r="3" fill="#E5483C"/><circle cx="35.4" cy="118.2" r="3" fill="#E5483C"/><circle cx="43.6" cy="118.2" r="3" fill="#E5483C"/><circle cx="51.8" cy="118.2" r="3" fill="#E5483C"/><circle cx="60" cy="118.2" r="3" fill="#E5483C"/><circle cx="68.2" cy="118.2" r="3" fill="#E5483C"/><circle cx="76.4" cy="118.2" r="3" fill="#E5483C"/><circle cx="84.6" cy="118.2" r="3" fill="#E5483C"/><circle cx="47.7" cy="125.3" r="3" fill="#E5483C"/><circle cx="55.9" cy="125.3" r="3" fill="#E5483C"/><circle cx="64.1" cy="125.3" r="3" fill="#E5483C"/><circle cx="72.3" cy="125.3" r="3" fill="#E5483C"/></svg>
