<svg xmlns="http://www.w3.org/2000/svg" viewBox="0 -69.42 439.42 88" width="439.42" height="88"><title>Starfruit lockup, for dark backgrounds</title><g transform="translate(-7.92 -75.31) scale(0.84)"><path d="M61.1 25.6 Q66 18 70.9 25.6 L78.2 37 Q83 44.5 91.8 46.8 L104.8 50.3 Q113.6 52.5 107.9 59.5 L99.3 70 Q93.6 77 94.1 85.9 L94.9 99.5 Q95.4 108.5 87 105.2 L74.4 100.3 Q66 97 57.6 100.3 L45 105.2 Q36.6 108.5 37.1 99.5 L37.9 85.9 Q38.4 77 32.7 70 L24.1 59.5 Q18.4 52.5 27.2 50.3 L40.2 46.8 Q49 44.5 53.8 37 Z" fill="#EDE6D6" stroke="#EDE6D6" stroke-width="6" stroke-linejoin="round"/><path d="M55.1 17.6 Q60 10 64.9 17.6 L72.2 29 Q77 36.5 85.8 38.8 L98.8 42.3 Q107.6 44.5 101.9 51.5 L93.3 62 Q87.6 69 88.1 77.9 L88.9 91.5 Q89.4 100.5 81 97.2 L68.4 92.3 Q60 89 51.6 92.3 L39 97.2 Q30.6 100.5 31.1 91.5 L31.9 77.9 Q32.4 69 26.7 62 L18.1 51.5 Q12.4 44.5 21.2 42.3 L34.2 38.8 Q43 36.5 47.8 29 Z" fill="#141414" stroke="#EDE6D6" stroke-width="6" stroke-linejoin="round"/><path d="M59.4 50.4 Q60 49 60.6 50.4 L62.4 54.6 Q62.9 56 64.4 56.1 L69 56.5 Q70.5 56.6 69.3 57.6 L65.9 60.6 Q64.8 61.5 65.1 63 L66.1 67.4 Q66.5 68.9 65.2 68.1 L61.3 65.8 Q60 65 58.7 65.8 L54.8 68.1 Q53.5 68.9 53.9 67.4 L54.9 63 Q55.2 61.5 54.1 60.6 L50.7 57.6 Q49.5 56.6 51 56.5 L55.6 56.1 Q57.1 56 57.6 54.6 Z" fill="none" stroke="#EDE6D6" stroke-width="2.6" stroke-linejoin="round"/><ellipse cx="60" cy="39" rx="3.6" ry="5.6" transform="rotate(0 60 39)" fill="#E5483C"/><ellipse cx="80" cy="53.5" rx="3.6" ry="5.6" transform="rotate(72 80 53.5)" fill="#E5483C"/><ellipse cx="72.3" cy="77" rx="3.6" ry="5.6" transform="rotate(144 72.3 77)" fill="#E5483C"/><ellipse cx="47.7" cy="77" rx="3.6" ry="5.6" transform="rotate(216 47.7 77)" fill="#E5483C"/><ellipse cx="40" cy="53.5" rx="3.6" ry="5.6" transform="rotate(288 40 53.5)" fill="#E5483C"/></g><path fill="#EDE6D6" d="M129.87 0.89Q126.17 0.89 123.03 0.18Q119.88 -0.52 117.52 -2.29Q115.15 -4.07 113.78 -7.18Q112.41 -10.29 112.41 -15.02Q112.41 -15.24 112.41 -15.69Q112.41 -16.13 112.48 -16.43H123.81Q123.81 -16.13 123.81 -15.76Q123.81 -15.39 123.81 -15.02Q123.81 -12.65 124.47 -11.29Q125.14 -9.92 126.4 -9.4Q127.65 -8.88 129.43 -8.88Q130.47 -8.88 131.28 -9.06Q132.09 -9.25 132.76 -9.66Q133.43 -10.06 133.87 -10.66Q134.31 -11.25 134.54 -12.1Q134.76 -12.95 134.76 -13.99Q134.76 -15.69 133.83 -16.87Q132.91 -18.06 131.39 -18.87Q129.87 -19.68 127.95 -20.42Q126.03 -21.16 123.95 -21.98Q121.88 -22.79 119.96 -23.9Q118.03 -25.01 116.52 -26.68Q115 -28.34 114.07 -30.71Q113.15 -33.08 113.15 -36.48Q113.15 -40.63 114.48 -43.51Q115.81 -46.4 118.14 -48.25Q120.48 -50.1 123.44 -50.95Q126.4 -51.8 129.73 -51.8Q133.13 -51.8 136.02 -51.02Q138.9 -50.25 141.08 -48.54Q143.27 -46.84 144.49 -44.1Q145.71 -41.37 145.71 -37.37V-35.82H134.54V-36.7Q134.54 -38.41 134.09 -39.59Q133.65 -40.77 132.65 -41.44Q131.65 -42.11 129.87 -42.11Q128.39 -42.11 127.32 -41.62Q126.25 -41.14 125.69 -40.18Q125.14 -39.22 125.14 -37.74Q125.14 -35.96 126.06 -34.78Q126.99 -33.6 128.54 -32.74Q130.1 -31.89 131.98 -31.19Q133.87 -30.49 135.94 -29.67Q138.01 -28.86 139.94 -27.75Q141.86 -26.64 143.42 -25.01Q144.97 -23.38 145.86 -21.05Q146.75 -18.72 146.75 -15.47Q146.75 -9.84 144.64 -6.22Q142.53 -2.59 138.75 -0.85Q134.98 0.89 129.87 0.89ZM161.69 0V-40.85H149.78V-50.84H185.37V-40.85H173.46V0ZM181.75 0 194.7 -50.84H210.24L223.26 0H210.76L208.68 -9.25H195.81L193.81 0ZM197.73 -18.8H206.83L204.24 -31.67Q204.1 -32.26 203.91 -33.3Q203.73 -34.34 203.47 -35.59Q203.21 -36.85 202.99 -38.11Q202.76 -39.37 202.54 -40.4H202.02Q201.8 -39.07 201.51 -37.48Q201.21 -35.89 200.91 -34.34Q200.62 -32.78 200.4 -31.67ZM227.33 0V-50.84H247.68Q253.31 -50.84 256.6 -48.8Q259.89 -46.77 261.3 -43.29Q262.7 -39.81 262.7 -35.52Q262.7 -30.93 261.33 -27.27Q259.97 -23.61 256.93 -21.39L264.41 0H251.9L246.13 -17.98H239.17V0ZM239.17 -27.38H245.91Q248.57 -27.38 249.72 -29.38Q250.86 -31.38 250.86 -34.56Q250.86 -36.7 250.35 -38.18Q249.83 -39.66 248.72 -40.48Q247.61 -41.29 245.76 -41.29H239.17ZM269.07 0V-50.84H297.93V-41H280.91V-29.23H295.26V-19.24H280.91V0ZM303.11 0V-50.84H323.46Q329.08 -50.84 332.37 -48.8Q335.67 -46.77 337.07 -43.29Q338.48 -39.81 338.48 -35.52Q338.48 -30.93 337.11 -27.27Q335.74 -23.61 332.71 -21.39L340.18 0H327.68L321.9 -17.98H314.95V0ZM314.95 -27.38H321.68Q324.35 -27.38 325.49 -29.38Q326.64 -31.38 326.64 -34.56Q326.64 -36.7 326.12 -38.18Q325.6 -39.66 324.49 -40.48Q323.38 -41.29 321.53 -41.29H314.95ZM361.72 0.89Q356.31 0.89 352.39 -0.89Q348.47 -2.66 346.36 -6.7Q344.25 -10.73 344.25 -17.46V-50.84H356.09V-16.95Q356.09 -13.1 357.35 -11.03Q358.61 -8.95 361.64 -8.95Q364.75 -8.95 366.08 -11.03Q367.41 -13.1 367.41 -16.95V-50.84H379.25V-17.46Q379.25 -10.73 377.14 -6.7Q375.04 -2.66 371.11 -0.89Q367.19 0.89 361.72 0.89ZM386.8 0V-50.84H398.64V0ZM415.74 0V-40.85H403.82V-50.84H439.42V-40.85H427.5V0Z"/></svg>
