<svg xmlns="http://www.w3.org/2000/svg" viewBox="0 0 16 16" shape-rendering="crispEdges"><path fill="#EDE6D6" d="M9 0h1v1h-1zM8 1h1v1h-1zM11 1h3v1h-3zM8 2h1v1h-1zM10 2h5v1h-5zM3 3h3v1h-3zM8 3h1v1h-1zM10 3h4v1h-4zM2 4h1v1h-1zM6 4h4v1h-4zM11 4h2v1h-2zM1 5h1v1h-1zM12 5h1v1h-1zM0 6h1v1h-1zM13 6h1v1h-1zM0 7h1v1h-1zM14 7h1v1h-1zM0 8h1v1h-1zM14 8h1v1h-1zM0 9h1v1h-1zM14 9h1v1h-1zM0 10h1v1h-1zM14 10h1v1h-1zM1 11h1v1h-1zM13 11h1v1h-1zM1 12h1v1h-1zM13 12h1v1h-1zM2 13h1v1h-1zM12 13h1v1h-1zM3 14h2v1h-2zM10 14h2v1h-2zM5 15h6v1h-6z"/><path fill="#E5483C" d="M7 6h1v1h-1zM5 8h1v1h-1zM9 8h1v1h-1zM5 11h1v1h-1zM9 11h1v1h-1z"/></svg>
